<mxfile host="Electron" modified="2023-06-15T05:34:17.780Z" agent="Mozilla/5.0 (Windows NT 10.0; Win64; x64) AppleWebKit/537.36 (KHTML, like Gecko) draw.io/21.2.8 Chrome/112.0.5615.165 Electron/24.2.0 Safari/537.36" etag="a3s3JW7JepxT6eHh32LW" version="21.2.8" type="device" pages="5">
  <diagram id="ULHXX1KtCg1eZ5d6QWp0" name="Select flight">
    <mxGraphModel dx="738" dy="690" grid="0" gridSize="10" guides="1" tooltips="1" connect="1" arrows="1" fold="1" page="1" pageScale="1" pageWidth="1654" pageHeight="1169" math="0" shadow="0">
      <root>
        <mxCell id="0" />
        <mxCell id="1" parent="0" />
        <mxCell id="VtHzgaNp4K-cCVuiRCO2-1" value="&lt;font style=&quot;font-size: 18px;&quot;&gt;HEADER&lt;br&gt;(LOGO - LOGIN BUTTON)&lt;/font&gt;" style="rounded=0;whiteSpace=wrap;html=1;" vertex="1" parent="1">
          <mxGeometry x="160" y="160" width="520" height="60" as="geometry" />
        </mxCell>
        <mxCell id="VtHzgaNp4K-cCVuiRCO2-3" value="&lt;div style=&quot;text-align: left;&quot;&gt;&lt;br&gt;&lt;/div&gt;" style="rounded=0;whiteSpace=wrap;html=1;" vertex="1" parent="1">
          <mxGeometry x="160" y="230" width="520" height="250" as="geometry" />
        </mxCell>
        <mxCell id="VtHzgaNp4K-cCVuiRCO2-4" value="&lt;font style=&quot;font-size: 18px;&quot;&gt;FOOTER&lt;br&gt;(Contact - Policy)&lt;/font&gt;" style="rounded=0;whiteSpace=wrap;html=1;" vertex="1" parent="1">
          <mxGeometry x="160" y="490" width="520" height="50" as="geometry" />
        </mxCell>
        <mxCell id="VtHzgaNp4K-cCVuiRCO2-5" value="&lt;span style=&quot;white-space: pre;&quot;&gt;	&lt;/span&gt;&lt;br&gt;&lt;span style=&quot;white-space: pre;&quot;&gt;	&lt;/span&gt;List of flight:" style="rounded=0;whiteSpace=wrap;html=1;verticalAlign=top;align=left;spacingTop=4;" vertex="1" parent="1">
          <mxGeometry x="310" y="301" width="350" height="149" as="geometry" />
        </mxCell>
        <mxCell id="VtHzgaNp4K-cCVuiRCO2-11" value="&lt;br&gt;Booking Details" style="rounded=0;whiteSpace=wrap;html=1;verticalAlign=top;spacingTop=4;" vertex="1" parent="1">
          <mxGeometry x="180" y="301" width="110" height="149" as="geometry" />
        </mxCell>
        <mxCell id="VtHzgaNp4K-cCVuiRCO2-12" value="On Departure: - flight info details" style="html=1;shadow=0;dashed=0;shape=mxgraph.bootstrap.radioButton2;labelPosition=right;verticalLabelPosition=middle;align=left;verticalAlign=middle;gradientColor=#DEDEDE;fillColor=#EDEDED;checked=1;spacing=5;checkedFill=#0085FC;checkedStroke=#ffffff;sketch=0;" vertex="1" parent="1">
          <mxGeometry x="340" y="362" width="10" height="10" as="geometry" />
        </mxCell>
        <mxCell id="VtHzgaNp4K-cCVuiRCO2-13" value="On Return: flight info details" style="html=1;shadow=0;dashed=0;shape=mxgraph.bootstrap.radioButton2;labelPosition=right;verticalLabelPosition=middle;align=left;verticalAlign=middle;gradientColor=#DEDEDE;fillColor=#EDEDED;checked=0;spacing=5;checkedFill=#0085FC;checkedStroke=#ffffff;sketch=0;" vertex="1" parent="1">
          <mxGeometry x="340" y="393" width="10" height="10" as="geometry" />
        </mxCell>
        <mxCell id="VtHzgaNp4K-cCVuiRCO2-38" value="" style="group" vertex="1" connectable="0" parent="1">
          <mxGeometry x="160" y="241" width="520" height="40" as="geometry" />
        </mxCell>
        <mxCell id="VtHzgaNp4K-cCVuiRCO2-15" value="1" style="shape=ellipse;fontSize=12;strokeColor=none;fillColor=#4285F4;fontColor=#ffffff;align=center;verticalAlign=middle;html=1;" vertex="1" parent="VtHzgaNp4K-cCVuiRCO2-38">
          <mxGeometry x="34.12780656303973" width="21.554404145077726" height="19.200000000000003" as="geometry" />
        </mxCell>
        <mxCell id="VtHzgaNp4K-cCVuiRCO2-16" value="Select Flight" style="shape=rect;fontColor=#4d4d4dlfontSize=13;strokeColor=none;fillColor=none;html=1;" vertex="1" parent="VtHzgaNp4K-cCVuiRCO2-38">
          <mxGeometry y="24" width="89.81001727115715" height="16" as="geometry" />
        </mxCell>
        <mxCell id="VtHzgaNp4K-cCVuiRCO2-17" value="" style="shape=line;strokeColor=#b3b3b3;" vertex="1" parent="VtHzgaNp4K-cCVuiRCO2-38">
          <mxGeometry x="62.86701208981002" y="5.6000000000000005" width="71.84801381692576" height="8" as="geometry" />
        </mxCell>
        <mxCell id="VtHzgaNp4K-cCVuiRCO2-18" value="2" style="shape=ellipse;fontSize=12;strokeColor=none;fillColor=#9E9E9E;fontColor=#ffffff;align=center;verticalAlign=middle;html=1;" vertex="1" parent="VtHzgaNp4K-cCVuiRCO2-38">
          <mxGeometry x="142.79792746113986" width="21.554404145077726" height="19.200000000000003" as="geometry" />
        </mxCell>
        <mxCell id="VtHzgaNp4K-cCVuiRCO2-19" value="Passenger on flight" style="shape=rect;fontColor=#4d4d4dlfontSize=13;strokeColor=none;fillColor=none;html=1;" vertex="1" parent="VtHzgaNp4K-cCVuiRCO2-38">
          <mxGeometry x="109.56822107081175" y="24" width="89.81001727115715" height="16" as="geometry" />
        </mxCell>
        <mxCell id="VtHzgaNp4K-cCVuiRCO2-21" value="3" style="shape=ellipse;fontSize=12;strokeColor=none;fillColor=#9e9e9e;fontColor=#ffffff;html=1;" vertex="1" parent="VtHzgaNp4K-cCVuiRCO2-38">
          <mxGeometry x="248.77374784110538" width="21.554404145077726" height="19.200000000000003" as="geometry" />
        </mxCell>
        <mxCell id="VtHzgaNp4K-cCVuiRCO2-22" value="Seat assignment" style="shape=rect;fontColor=#4d4d4dlfontSize=13;strokeColor=none;fillColor=none;align=center;verticalAlign=middle;html=1;" vertex="1" parent="VtHzgaNp4K-cCVuiRCO2-38">
          <mxGeometry x="214.64594127806564" y="24" width="89.81001727115715" height="16" as="geometry" />
        </mxCell>
        <mxCell id="VtHzgaNp4K-cCVuiRCO2-28" value="4" style="shape=ellipse;fontSize=12;strokeColor=none;fillColor=#9e9e9e;fontColor=#ffffff;html=1;" vertex="1" parent="VtHzgaNp4K-cCVuiRCO2-38">
          <mxGeometry x="356.54576856649396" width="21.554404145077726" height="19.200000000000003" as="geometry" />
        </mxCell>
        <mxCell id="VtHzgaNp4K-cCVuiRCO2-29" value="Important Notices" style="shape=rect;fontColor=#4d4d4dlfontSize=13;strokeColor=none;fillColor=none;align=center;verticalAlign=middle;html=1;" vertex="1" parent="VtHzgaNp4K-cCVuiRCO2-38">
          <mxGeometry x="322.41796200345425" y="24" width="89.81001727115715" height="16" as="geometry" />
        </mxCell>
        <mxCell id="VtHzgaNp4K-cCVuiRCO2-33" value="5" style="shape=ellipse;fontSize=12;strokeColor=none;fillColor=#9e9e9e;fontColor=#ffffff;html=1;" vertex="1" parent="VtHzgaNp4K-cCVuiRCO2-38">
          <mxGeometry x="464.3177892918826" width="21.554404145077726" height="19.200000000000003" as="geometry" />
        </mxCell>
        <mxCell id="VtHzgaNp4K-cCVuiRCO2-34" value="Boarding Pass" style="shape=rect;fontColor=#4d4d4dlfontSize=13;strokeColor=none;fillColor=none;align=center;verticalAlign=middle;html=1;" vertex="1" parent="VtHzgaNp4K-cCVuiRCO2-38">
          <mxGeometry x="430.18998272884284" y="24" width="89.81001727115715" height="16" as="geometry" />
        </mxCell>
        <mxCell id="VtHzgaNp4K-cCVuiRCO2-35" value="" style="shape=line;strokeColor=#b3b3b3;" vertex="1" parent="VtHzgaNp4K-cCVuiRCO2-38">
          <mxGeometry x="169.74093264248705" y="5.6000000000000005" width="71.84801381692576" height="8" as="geometry" />
        </mxCell>
        <mxCell id="VtHzgaNp4K-cCVuiRCO2-36" value="" style="shape=line;strokeColor=#b3b3b3;" vertex="1" parent="VtHzgaNp4K-cCVuiRCO2-38">
          <mxGeometry x="277.5129533678757" y="5.6000000000000005" width="71.84801381692576" height="8" as="geometry" />
        </mxCell>
        <mxCell id="VtHzgaNp4K-cCVuiRCO2-37" value="" style="shape=line;strokeColor=#b3b3b3;" vertex="1" parent="VtHzgaNp4K-cCVuiRCO2-38">
          <mxGeometry x="385.2849740932643" y="5.6000000000000005" width="71.84801381692576" height="8" as="geometry" />
        </mxCell>
      </root>
    </mxGraphModel>
  </diagram>
  <diagram name="Passenger on flight" id="NhvqrvZ4x7-KY_mftnMt">
    <mxGraphModel dx="738" dy="690" grid="0" gridSize="10" guides="1" tooltips="1" connect="1" arrows="1" fold="1" page="1" pageScale="1" pageWidth="1654" pageHeight="1169" math="0" shadow="0">
      <root>
        <mxCell id="0" />
        <mxCell id="1" parent="0" />
        <mxCell id="k8cHPZFezF-ji65RmzMZ-23" value="&lt;font style=&quot;font-size: 18px;&quot;&gt;HEADER&lt;br&gt;(LOGO - LOGIN BUTTON)&lt;/font&gt;" style="rounded=0;whiteSpace=wrap;html=1;" vertex="1" parent="1">
          <mxGeometry x="160" y="160" width="520" height="60" as="geometry" />
        </mxCell>
        <mxCell id="k8cHPZFezF-ji65RmzMZ-25" value="&lt;div style=&quot;text-align: left;&quot;&gt;&lt;br&gt;&lt;/div&gt;" style="rounded=0;whiteSpace=wrap;html=1;" vertex="1" parent="1">
          <mxGeometry x="160" y="230" width="520" height="280" as="geometry" />
        </mxCell>
        <mxCell id="k8cHPZFezF-ji65RmzMZ-26" value="&lt;font style=&quot;font-size: 18px;&quot;&gt;FOOTER&lt;br&gt;(Contact - Policy)&lt;/font&gt;" style="rounded=0;whiteSpace=wrap;html=1;" vertex="1" parent="1">
          <mxGeometry x="160" y="520" width="520" height="50" as="geometry" />
        </mxCell>
        <mxCell id="k8cHPZFezF-ji65RmzMZ-35" value="&lt;span style=&quot;white-space: pre;&quot;&gt;	&lt;/span&gt;On Departure:&lt;br&gt;&lt;span style=&quot;white-space: pre;&quot;&gt;	&lt;/span&gt;List of booking" style="rounded=0;whiteSpace=wrap;html=1;verticalAlign=top;align=left;spacingTop=4;" vertex="1" parent="1">
          <mxGeometry x="310" y="293" width="350" height="94" as="geometry" />
        </mxCell>
        <mxCell id="k8cHPZFezF-ji65RmzMZ-33" value="Passenger 1" style="html=1;shadow=0;dashed=0;shape=mxgraph.bootstrap.checkbox2;labelPosition=right;verticalLabelPosition=middle;align=left;verticalAlign=middle;checked=1;spacing=5;checkedFill=#0085FC;checkedStroke=#ffffff;sketch=0;fillColor=default;fontColor=#333333;strokeColor=#666666;" vertex="1" parent="1">
          <mxGeometry x="340" y="343" width="10" height="10" as="geometry" />
        </mxCell>
        <mxCell id="k8cHPZFezF-ji65RmzMZ-34" value="Passenger 2" style="html=1;shadow=0;dashed=0;shape=mxgraph.bootstrap.checkbox2;labelPosition=right;verticalLabelPosition=middle;align=left;verticalAlign=middle;gradientColor=#DEDEDE;fillColor=#EDEDED;checked=0;spacing=5;fontColor=#6C767D;checkedFill=#0085FC;checkedStroke=#ffffff;sketch=0;" vertex="1" parent="1">
          <mxGeometry x="340" y="363" width="10" height="10" as="geometry" />
        </mxCell>
        <mxCell id="k8cHPZFezF-ji65RmzMZ-37" value="&lt;span style=&quot;white-space: pre;&quot;&gt;	&lt;/span&gt;On Return:&lt;br&gt;&lt;span style=&quot;white-space: pre;&quot;&gt;	&lt;/span&gt;List of booking" style="rounded=0;whiteSpace=wrap;html=1;verticalAlign=top;align=left;spacingTop=4;" vertex="1" parent="1">
          <mxGeometry x="310" y="401" width="350" height="95" as="geometry" />
        </mxCell>
        <mxCell id="k8cHPZFezF-ji65RmzMZ-38" value="Passenger 1" style="html=1;shadow=0;dashed=0;shape=mxgraph.bootstrap.checkbox2;labelPosition=right;verticalLabelPosition=middle;align=left;verticalAlign=middle;gradientColor=#DEDEDE;fillColor=#EDEDED;checked=1;spacing=5;checkedFill=#0085FC;checkedStroke=#ffffff;sketch=0;" vertex="1" parent="1">
          <mxGeometry x="340" y="453" width="10" height="10" as="geometry" />
        </mxCell>
        <mxCell id="k8cHPZFezF-ji65RmzMZ-39" value="Passenger 2" style="html=1;shadow=0;dashed=0;shape=mxgraph.bootstrap.checkbox2;labelPosition=right;verticalLabelPosition=middle;align=left;verticalAlign=middle;gradientColor=#DEDEDE;fillColor=#EDEDED;checked=0;spacing=5;fontColor=#6C767D;checkedFill=#0085FC;checkedStroke=#ffffff;sketch=0;" vertex="1" parent="1">
          <mxGeometry x="340" y="473" width="10" height="10" as="geometry" />
        </mxCell>
        <mxCell id="k8cHPZFezF-ji65RmzMZ-40" value="Booking Details" style="rounded=0;whiteSpace=wrap;html=1;verticalAlign=top;spacingTop=4;" vertex="1" parent="1">
          <mxGeometry x="180" y="293" width="110" height="204" as="geometry" />
        </mxCell>
        <mxCell id="dpk5T1Lk-ixyZ_Mbf2Yj-1" value="" style="group" vertex="1" connectable="0" parent="1">
          <mxGeometry x="160" y="238" width="520" height="40" as="geometry" />
        </mxCell>
        <mxCell id="dpk5T1Lk-ixyZ_Mbf2Yj-2" value="1" style="shape=ellipse;fontSize=12;strokeColor=none;fillColor=#9E9E9E;fontColor=#ffffff;align=center;verticalAlign=middle;html=1;" vertex="1" parent="dpk5T1Lk-ixyZ_Mbf2Yj-1">
          <mxGeometry x="34.12780656303973" width="21.554404145077726" height="19.200000000000003" as="geometry" />
        </mxCell>
        <mxCell id="dpk5T1Lk-ixyZ_Mbf2Yj-3" value="Select Flight" style="shape=rect;fontColor=#4d4d4dlfontSize=13;strokeColor=none;fillColor=none;html=1;" vertex="1" parent="dpk5T1Lk-ixyZ_Mbf2Yj-1">
          <mxGeometry y="24" width="89.81001727115715" height="16" as="geometry" />
        </mxCell>
        <mxCell id="dpk5T1Lk-ixyZ_Mbf2Yj-4" value="" style="shape=line;strokeColor=#b3b3b3;" vertex="1" parent="dpk5T1Lk-ixyZ_Mbf2Yj-1">
          <mxGeometry x="62.86701208981002" y="5.6000000000000005" width="71.84801381692576" height="8" as="geometry" />
        </mxCell>
        <mxCell id="dpk5T1Lk-ixyZ_Mbf2Yj-5" value="2" style="shape=ellipse;fontSize=12;strokeColor=none;fillColor=#4285F4;fontColor=#ffffff;align=center;verticalAlign=middle;html=1;" vertex="1" parent="dpk5T1Lk-ixyZ_Mbf2Yj-1">
          <mxGeometry x="142.79792746113986" width="21.554404145077726" height="19.200000000000003" as="geometry" />
        </mxCell>
        <mxCell id="dpk5T1Lk-ixyZ_Mbf2Yj-6" value="Passenger on Flight" style="shape=rect;fontColor=#4d4d4dlfontSize=13;strokeColor=none;fillColor=none;html=1;" vertex="1" parent="dpk5T1Lk-ixyZ_Mbf2Yj-1">
          <mxGeometry x="109.56822107081175" y="24" width="89.81001727115715" height="16" as="geometry" />
        </mxCell>
        <mxCell id="dpk5T1Lk-ixyZ_Mbf2Yj-7" value="3" style="shape=ellipse;fontSize=12;strokeColor=none;fillColor=#9e9e9e;fontColor=#ffffff;html=1;" vertex="1" parent="dpk5T1Lk-ixyZ_Mbf2Yj-1">
          <mxGeometry x="248.77374784110538" width="21.554404145077726" height="19.200000000000003" as="geometry" />
        </mxCell>
        <mxCell id="dpk5T1Lk-ixyZ_Mbf2Yj-8" value="Seat assignment" style="shape=rect;fontColor=#4d4d4dlfontSize=13;strokeColor=none;fillColor=none;align=center;verticalAlign=middle;html=1;" vertex="1" parent="dpk5T1Lk-ixyZ_Mbf2Yj-1">
          <mxGeometry x="214.64594127806564" y="24" width="89.81001727115715" height="16" as="geometry" />
        </mxCell>
        <mxCell id="dpk5T1Lk-ixyZ_Mbf2Yj-9" value="4" style="shape=ellipse;fontSize=12;strokeColor=none;fillColor=#9e9e9e;fontColor=#ffffff;html=1;" vertex="1" parent="dpk5T1Lk-ixyZ_Mbf2Yj-1">
          <mxGeometry x="356.54576856649396" width="21.554404145077726" height="19.200000000000003" as="geometry" />
        </mxCell>
        <mxCell id="dpk5T1Lk-ixyZ_Mbf2Yj-10" value="Important Notices" style="shape=rect;fontColor=#4d4d4dlfontSize=13;strokeColor=none;fillColor=none;align=center;verticalAlign=middle;html=1;" vertex="1" parent="dpk5T1Lk-ixyZ_Mbf2Yj-1">
          <mxGeometry x="322.41796200345425" y="24" width="89.81001727115715" height="16" as="geometry" />
        </mxCell>
        <mxCell id="dpk5T1Lk-ixyZ_Mbf2Yj-11" value="5" style="shape=ellipse;fontSize=12;strokeColor=none;fillColor=#9e9e9e;fontColor=#ffffff;html=1;" vertex="1" parent="dpk5T1Lk-ixyZ_Mbf2Yj-1">
          <mxGeometry x="464.3177892918826" width="21.554404145077726" height="19.200000000000003" as="geometry" />
        </mxCell>
        <mxCell id="dpk5T1Lk-ixyZ_Mbf2Yj-12" value="Boarding Pass" style="shape=rect;fontColor=#4d4d4dlfontSize=13;strokeColor=none;fillColor=none;align=center;verticalAlign=middle;html=1;" vertex="1" parent="dpk5T1Lk-ixyZ_Mbf2Yj-1">
          <mxGeometry x="430.18998272884284" y="24" width="89.81001727115715" height="16" as="geometry" />
        </mxCell>
        <mxCell id="dpk5T1Lk-ixyZ_Mbf2Yj-13" value="" style="shape=line;strokeColor=#b3b3b3;" vertex="1" parent="dpk5T1Lk-ixyZ_Mbf2Yj-1">
          <mxGeometry x="169.74093264248705" y="5.6000000000000005" width="71.84801381692576" height="8" as="geometry" />
        </mxCell>
        <mxCell id="dpk5T1Lk-ixyZ_Mbf2Yj-14" value="" style="shape=line;strokeColor=#b3b3b3;" vertex="1" parent="dpk5T1Lk-ixyZ_Mbf2Yj-1">
          <mxGeometry x="277.5129533678757" y="5.6000000000000005" width="71.84801381692576" height="8" as="geometry" />
        </mxCell>
        <mxCell id="dpk5T1Lk-ixyZ_Mbf2Yj-15" value="" style="shape=line;strokeColor=#b3b3b3;" vertex="1" parent="dpk5T1Lk-ixyZ_Mbf2Yj-1">
          <mxGeometry x="385.2849740932643" y="5.6000000000000005" width="71.84801381692576" height="8" as="geometry" />
        </mxCell>
      </root>
    </mxGraphModel>
  </diagram>
  <diagram id="8ECV8NA-RCe8BbD8ynh2" name="Seat assignment">
    <mxGraphModel dx="738" dy="690" grid="0" gridSize="10" guides="1" tooltips="1" connect="1" arrows="1" fold="1" page="1" pageScale="1" pageWidth="1654" pageHeight="1169" math="0" shadow="0">
      <root>
        <mxCell id="0" />
        <mxCell id="1" parent="0" />
        <mxCell id="-1iqm7aOZihUnsAlqprX-1" value="&lt;font style=&quot;font-size: 18px;&quot;&gt;HEADER&lt;br&gt;(LOGO - LOGIN BUTTON)&lt;/font&gt;" style="rounded=0;whiteSpace=wrap;html=1;" vertex="1" parent="1">
          <mxGeometry x="160" y="160" width="520" height="60" as="geometry" />
        </mxCell>
        <mxCell id="-1iqm7aOZihUnsAlqprX-2" value="&lt;div style=&quot;text-align: left;&quot;&gt;&lt;br&gt;&lt;/div&gt;" style="rounded=0;whiteSpace=wrap;html=1;" vertex="1" parent="1">
          <mxGeometry x="160" y="230" width="520" height="267" as="geometry" />
        </mxCell>
        <mxCell id="-1iqm7aOZihUnsAlqprX-3" value="&lt;font style=&quot;font-size: 18px;&quot;&gt;FOOTER&lt;br&gt;(Contact - Policy)&lt;/font&gt;" style="rounded=0;whiteSpace=wrap;html=1;" vertex="1" parent="1">
          <mxGeometry x="160" y="508" width="520" height="50" as="geometry" />
        </mxCell>
        <mxCell id="-1iqm7aOZihUnsAlqprX-4" value="Seatmap" style="rounded=0;whiteSpace=wrap;html=1;verticalAlign=middle;align=center;spacingTop=4;" vertex="1" parent="1">
          <mxGeometry x="330" y="290" width="310" height="190" as="geometry" />
        </mxCell>
        <mxCell id="-1iqm7aOZihUnsAlqprX-10" value="&lt;br&gt;List of passenger:" style="rounded=0;whiteSpace=wrap;html=1;verticalAlign=top;spacingTop=4;" vertex="1" parent="1">
          <mxGeometry x="200" y="290" width="110" height="190" as="geometry" />
        </mxCell>
        <mxCell id="-1iqm7aOZihUnsAlqprX-5" value="Booking 1" style="html=1;shadow=0;dashed=0;shape=mxgraph.bootstrap.checkbox2;labelPosition=right;verticalLabelPosition=middle;align=left;verticalAlign=middle;checked=1;spacing=5;checkedFill=#0085FC;checkedStroke=#ffffff;sketch=0;fillColor=default;fontColor=#333333;strokeColor=#666666;" vertex="1" parent="1">
          <mxGeometry x="210" y="345" width="10" height="10" as="geometry" />
        </mxCell>
        <mxCell id="-1iqm7aOZihUnsAlqprX-6" value="Booking 2 ..." style="html=1;shadow=0;dashed=0;shape=mxgraph.bootstrap.checkbox2;labelPosition=right;verticalLabelPosition=middle;align=left;verticalAlign=middle;gradientColor=#DEDEDE;fillColor=#EDEDED;checked=0;spacing=5;fontColor=#6C767D;checkedFill=#0085FC;checkedStroke=#ffffff;sketch=0;" vertex="1" parent="1">
          <mxGeometry x="210" y="365" width="10" height="10" as="geometry" />
        </mxCell>
        <mxCell id="-1iqm7aOZihUnsAlqprX-11" value="" style="group" vertex="1" connectable="0" parent="1">
          <mxGeometry x="160" y="238" width="520" height="40" as="geometry" />
        </mxCell>
        <mxCell id="-1iqm7aOZihUnsAlqprX-12" value="1" style="shape=ellipse;fontSize=12;strokeColor=none;fillColor=#9E9E9E;fontColor=#ffffff;align=center;verticalAlign=middle;html=1;" vertex="1" parent="-1iqm7aOZihUnsAlqprX-11">
          <mxGeometry x="34.12780656303973" width="21.554404145077726" height="19.200000000000003" as="geometry" />
        </mxCell>
        <mxCell id="-1iqm7aOZihUnsAlqprX-13" value="Select Flight" style="shape=rect;fontColor=#4d4d4dlfontSize=13;strokeColor=none;fillColor=none;html=1;" vertex="1" parent="-1iqm7aOZihUnsAlqprX-11">
          <mxGeometry y="24" width="89.81001727115715" height="16" as="geometry" />
        </mxCell>
        <mxCell id="-1iqm7aOZihUnsAlqprX-14" value="" style="shape=line;strokeColor=#b3b3b3;" vertex="1" parent="-1iqm7aOZihUnsAlqprX-11">
          <mxGeometry x="62.86701208981002" y="5.6000000000000005" width="71.84801381692576" height="8" as="geometry" />
        </mxCell>
        <mxCell id="-1iqm7aOZihUnsAlqprX-15" value="2" style="shape=ellipse;fontSize=12;strokeColor=none;fillColor=#9E9E9E;fontColor=#ffffff;align=center;verticalAlign=middle;html=1;" vertex="1" parent="-1iqm7aOZihUnsAlqprX-11">
          <mxGeometry x="142.79792746113986" width="21.554404145077726" height="19.200000000000003" as="geometry" />
        </mxCell>
        <mxCell id="-1iqm7aOZihUnsAlqprX-16" value="Passenger on Flight" style="shape=rect;fontColor=#4d4d4dlfontSize=13;strokeColor=none;fillColor=none;html=1;" vertex="1" parent="-1iqm7aOZihUnsAlqprX-11">
          <mxGeometry x="109.56822107081175" y="24" width="89.81001727115715" height="16" as="geometry" />
        </mxCell>
        <mxCell id="-1iqm7aOZihUnsAlqprX-17" value="3" style="shape=ellipse;fontSize=12;strokeColor=none;fillColor=#4285F4;fontColor=#ffffff;html=1;" vertex="1" parent="-1iqm7aOZihUnsAlqprX-11">
          <mxGeometry x="248.77374784110538" width="21.554404145077726" height="19.200000000000003" as="geometry" />
        </mxCell>
        <mxCell id="-1iqm7aOZihUnsAlqprX-18" value="Seat assignment" style="shape=rect;fontColor=#4d4d4dlfontSize=13;strokeColor=none;fillColor=none;align=center;verticalAlign=middle;html=1;" vertex="1" parent="-1iqm7aOZihUnsAlqprX-11">
          <mxGeometry x="214.64594127806564" y="24" width="89.81001727115715" height="16" as="geometry" />
        </mxCell>
        <mxCell id="-1iqm7aOZihUnsAlqprX-19" value="4" style="shape=ellipse;fontSize=12;strokeColor=none;fillColor=#9e9e9e;fontColor=#ffffff;html=1;" vertex="1" parent="-1iqm7aOZihUnsAlqprX-11">
          <mxGeometry x="356.54576856649396" width="21.554404145077726" height="19.200000000000003" as="geometry" />
        </mxCell>
        <mxCell id="-1iqm7aOZihUnsAlqprX-20" value="Important Notices" style="shape=rect;fontColor=#4d4d4dlfontSize=13;strokeColor=none;fillColor=none;align=center;verticalAlign=middle;html=1;" vertex="1" parent="-1iqm7aOZihUnsAlqprX-11">
          <mxGeometry x="322.41796200345425" y="24" width="89.81001727115715" height="16" as="geometry" />
        </mxCell>
        <mxCell id="-1iqm7aOZihUnsAlqprX-21" value="5" style="shape=ellipse;fontSize=12;strokeColor=none;fillColor=#9e9e9e;fontColor=#ffffff;html=1;" vertex="1" parent="-1iqm7aOZihUnsAlqprX-11">
          <mxGeometry x="464.3177892918826" width="21.554404145077726" height="19.200000000000003" as="geometry" />
        </mxCell>
        <mxCell id="-1iqm7aOZihUnsAlqprX-22" value="Boarding Pass" style="shape=rect;fontColor=#4d4d4dlfontSize=13;strokeColor=none;fillColor=none;align=center;verticalAlign=middle;html=1;" vertex="1" parent="-1iqm7aOZihUnsAlqprX-11">
          <mxGeometry x="430.18998272884284" y="24" width="89.81001727115715" height="16" as="geometry" />
        </mxCell>
        <mxCell id="-1iqm7aOZihUnsAlqprX-23" value="" style="shape=line;strokeColor=#b3b3b3;" vertex="1" parent="-1iqm7aOZihUnsAlqprX-11">
          <mxGeometry x="169.74093264248705" y="5.6000000000000005" width="71.84801381692576" height="8" as="geometry" />
        </mxCell>
        <mxCell id="-1iqm7aOZihUnsAlqprX-24" value="" style="shape=line;strokeColor=#b3b3b3;" vertex="1" parent="-1iqm7aOZihUnsAlqprX-11">
          <mxGeometry x="277.5129533678757" y="5.6000000000000005" width="71.84801381692576" height="8" as="geometry" />
        </mxCell>
        <mxCell id="-1iqm7aOZihUnsAlqprX-25" value="" style="shape=line;strokeColor=#b3b3b3;" vertex="1" parent="-1iqm7aOZihUnsAlqprX-11">
          <mxGeometry x="385.2849740932643" y="5.6000000000000005" width="71.84801381692576" height="8" as="geometry" />
        </mxCell>
      </root>
    </mxGraphModel>
  </diagram>
  <diagram id="wYFUcoACRTlzc2jtwxvs" name="Important Notices">
    <mxGraphModel dx="738" dy="690" grid="0" gridSize="10" guides="1" tooltips="1" connect="1" arrows="1" fold="1" page="1" pageScale="1" pageWidth="1654" pageHeight="1169" math="0" shadow="0">
      <root>
        <mxCell id="0" />
        <mxCell id="1" parent="0" />
        <mxCell id="_B4RFRAAVqO7EWXHtEh1-1" value="&lt;font style=&quot;font-size: 18px;&quot;&gt;HEADER&lt;br&gt;(LOGO - LOGIN BUTTON)&lt;/font&gt;" style="rounded=0;whiteSpace=wrap;html=1;" vertex="1" parent="1">
          <mxGeometry x="160" y="160" width="520" height="60" as="geometry" />
        </mxCell>
        <mxCell id="_B4RFRAAVqO7EWXHtEh1-2" value="&lt;div style=&quot;text-align: left;&quot;&gt;&lt;br&gt;&lt;/div&gt;" style="rounded=0;whiteSpace=wrap;html=1;" vertex="1" parent="1">
          <mxGeometry x="160" y="230" width="520" height="300" as="geometry" />
        </mxCell>
        <mxCell id="_B4RFRAAVqO7EWXHtEh1-3" value="&lt;font style=&quot;font-size: 18px;&quot;&gt;FOOTER&lt;br&gt;(Contact - Policy)&lt;/font&gt;" style="rounded=0;whiteSpace=wrap;html=1;" vertex="1" parent="1">
          <mxGeometry x="160" y="540" width="520" height="50" as="geometry" />
        </mxCell>
        <mxCell id="_B4RFRAAVqO7EWXHtEh1-10" value="&lt;br&gt;&lt;br&gt;&lt;br&gt;List of regulation" style="rounded=0;whiteSpace=wrap;html=1;verticalAlign=top;spacingTop=4;" vertex="1" parent="1">
          <mxGeometry x="270" y="295.5" width="300" height="213.5" as="geometry" />
        </mxCell>
        <mxCell id="_B4RFRAAVqO7EWXHtEh1-11" value="" style="group" vertex="1" connectable="0" parent="1">
          <mxGeometry x="160" y="238" width="520" height="40" as="geometry" />
        </mxCell>
        <mxCell id="_B4RFRAAVqO7EWXHtEh1-12" value="1" style="shape=ellipse;fontSize=12;strokeColor=none;fillColor=#9E9E9E;fontColor=#ffffff;align=center;verticalAlign=middle;html=1;" vertex="1" parent="_B4RFRAAVqO7EWXHtEh1-11">
          <mxGeometry x="34.12780656303973" width="21.554404145077726" height="19.200000000000003" as="geometry" />
        </mxCell>
        <mxCell id="_B4RFRAAVqO7EWXHtEh1-13" value="Select Flight" style="shape=rect;fontColor=#4d4d4dlfontSize=13;strokeColor=none;fillColor=none;html=1;" vertex="1" parent="_B4RFRAAVqO7EWXHtEh1-11">
          <mxGeometry y="24" width="89.81001727115715" height="16" as="geometry" />
        </mxCell>
        <mxCell id="_B4RFRAAVqO7EWXHtEh1-14" value="" style="shape=line;strokeColor=#b3b3b3;" vertex="1" parent="_B4RFRAAVqO7EWXHtEh1-11">
          <mxGeometry x="62.86701208981002" y="5.6000000000000005" width="71.84801381692576" height="8" as="geometry" />
        </mxCell>
        <mxCell id="_B4RFRAAVqO7EWXHtEh1-15" value="2" style="shape=ellipse;fontSize=12;strokeColor=none;fillColor=#9E9E9E;fontColor=#ffffff;align=center;verticalAlign=middle;html=1;" vertex="1" parent="_B4RFRAAVqO7EWXHtEh1-11">
          <mxGeometry x="142.79792746113986" width="21.554404145077726" height="19.200000000000003" as="geometry" />
        </mxCell>
        <mxCell id="_B4RFRAAVqO7EWXHtEh1-16" value="Passenger on Flight" style="shape=rect;fontColor=#4d4d4dlfontSize=13;strokeColor=none;fillColor=none;html=1;" vertex="1" parent="_B4RFRAAVqO7EWXHtEh1-11">
          <mxGeometry x="109.56822107081175" y="24" width="89.81001727115715" height="16" as="geometry" />
        </mxCell>
        <mxCell id="_B4RFRAAVqO7EWXHtEh1-17" value="3" style="shape=ellipse;fontSize=12;strokeColor=none;fillColor=#9E9E9E;fontColor=#ffffff;html=1;" vertex="1" parent="_B4RFRAAVqO7EWXHtEh1-11">
          <mxGeometry x="248.77374784110538" width="21.554404145077726" height="19.200000000000003" as="geometry" />
        </mxCell>
        <mxCell id="_B4RFRAAVqO7EWXHtEh1-18" value="Seat assignment" style="shape=rect;fontColor=#4d4d4dlfontSize=13;strokeColor=none;fillColor=none;align=center;verticalAlign=middle;html=1;" vertex="1" parent="_B4RFRAAVqO7EWXHtEh1-11">
          <mxGeometry x="214.64594127806564" y="24" width="89.81001727115715" height="16" as="geometry" />
        </mxCell>
        <mxCell id="_B4RFRAAVqO7EWXHtEh1-19" value="4" style="shape=ellipse;fontSize=12;strokeColor=none;fillColor=#4285F4;fontColor=#ffffff;html=1;" vertex="1" parent="_B4RFRAAVqO7EWXHtEh1-11">
          <mxGeometry x="356.54576856649396" width="21.554404145077726" height="19.200000000000003" as="geometry" />
        </mxCell>
        <mxCell id="_B4RFRAAVqO7EWXHtEh1-20" value="Important Notices" style="shape=rect;fontColor=#4d4d4dlfontSize=13;strokeColor=none;fillColor=none;align=center;verticalAlign=middle;html=1;" vertex="1" parent="_B4RFRAAVqO7EWXHtEh1-11">
          <mxGeometry x="322.41796200345425" y="24" width="89.81001727115715" height="16" as="geometry" />
        </mxCell>
        <mxCell id="_B4RFRAAVqO7EWXHtEh1-21" value="5" style="shape=ellipse;fontSize=12;strokeColor=none;fillColor=#9e9e9e;fontColor=#ffffff;html=1;" vertex="1" parent="_B4RFRAAVqO7EWXHtEh1-11">
          <mxGeometry x="464.3177892918826" width="21.554404145077726" height="19.200000000000003" as="geometry" />
        </mxCell>
        <mxCell id="_B4RFRAAVqO7EWXHtEh1-22" value="Boarding Pass" style="shape=rect;fontColor=#4d4d4dlfontSize=13;strokeColor=none;fillColor=none;align=center;verticalAlign=middle;html=1;" vertex="1" parent="_B4RFRAAVqO7EWXHtEh1-11">
          <mxGeometry x="430.18998272884284" y="24" width="89.81001727115715" height="16" as="geometry" />
        </mxCell>
        <mxCell id="_B4RFRAAVqO7EWXHtEh1-23" value="" style="shape=line;strokeColor=#b3b3b3;" vertex="1" parent="_B4RFRAAVqO7EWXHtEh1-11">
          <mxGeometry x="169.74093264248705" y="5.6000000000000005" width="71.84801381692576" height="8" as="geometry" />
        </mxCell>
        <mxCell id="_B4RFRAAVqO7EWXHtEh1-24" value="" style="shape=line;strokeColor=#b3b3b3;" vertex="1" parent="_B4RFRAAVqO7EWXHtEh1-11">
          <mxGeometry x="277.5129533678757" y="5.6000000000000005" width="71.84801381692576" height="8" as="geometry" />
        </mxCell>
        <mxCell id="_B4RFRAAVqO7EWXHtEh1-25" value="" style="shape=line;strokeColor=#b3b3b3;" vertex="1" parent="_B4RFRAAVqO7EWXHtEh1-11">
          <mxGeometry x="385.2849740932643" y="5.6000000000000005" width="71.84801381692576" height="8" as="geometry" />
        </mxCell>
        <mxCell id="OObNu06sn6otWajzIi7B-1" value="Terms &amp;amp; conditions aggrement" style="html=1;shadow=0;dashed=0;shape=mxgraph.bootstrap.checkbox2;labelPosition=right;verticalLabelPosition=middle;align=left;verticalAlign=middle;gradientColor=#DEDEDE;fillColor=#EDEDED;checked=1;spacing=5;checkedFill=#0085FC;checkedStroke=#ffffff;sketch=0;" vertex="1" parent="1">
          <mxGeometry x="330" y="443" width="10" height="10" as="geometry" />
        </mxCell>
        <mxCell id="OObNu06sn6otWajzIi7B-3" value="&lt;font style=&quot;font-size: 12px;&quot;&gt;Confirm&lt;/font&gt;" style="html=1;shadow=0;dashed=0;shape=mxgraph.bootstrap.rrect;rSize=5;strokeColor=none;strokeWidth=1;fillColor=#0085FC;fontColor=#FFFFFF;whiteSpace=wrap;align=center;verticalAlign=middle;spacingLeft=0;fontStyle=0;fontSize=16;spacing=5;" vertex="1" parent="1">
          <mxGeometry x="330" y="463" width="60" height="30" as="geometry" />
        </mxCell>
      </root>
    </mxGraphModel>
  </diagram>
  <diagram id="DJjwm1C3_NxB8vM5IS5G" name="Boarding Pass">
    <mxGraphModel dx="738" dy="690" grid="0" gridSize="10" guides="1" tooltips="1" connect="1" arrows="1" fold="1" page="1" pageScale="1" pageWidth="1654" pageHeight="1169" math="0" shadow="0">
      <root>
        <mxCell id="0" />
        <mxCell id="1" parent="0" />
        <mxCell id="42obXh37JdK9595BwuWY-1" value="&lt;font style=&quot;font-size: 18px;&quot;&gt;HEADER&lt;br&gt;(LOGO - LOGIN BUTTON)&lt;/font&gt;" style="rounded=0;whiteSpace=wrap;html=1;" vertex="1" parent="1">
          <mxGeometry x="160" y="160" width="520" height="60" as="geometry" />
        </mxCell>
        <mxCell id="42obXh37JdK9595BwuWY-2" value="&lt;div style=&quot;text-align: left;&quot;&gt;&lt;br&gt;&lt;/div&gt;" style="rounded=0;whiteSpace=wrap;html=1;" vertex="1" parent="1">
          <mxGeometry x="160" y="230" width="520" height="290" as="geometry" />
        </mxCell>
        <mxCell id="42obXh37JdK9595BwuWY-3" value="&lt;font style=&quot;font-size: 18px;&quot;&gt;FOOTER&lt;br&gt;(Contact - Policy)&lt;/font&gt;" style="rounded=0;whiteSpace=wrap;html=1;" vertex="1" parent="1">
          <mxGeometry x="160" y="530" width="520" height="60" as="geometry" />
        </mxCell>
        <mxCell id="42obXh37JdK9595BwuWY-4" value="Congratulation" style="rounded=0;whiteSpace=wrap;html=1;verticalAlign=middle;align=center;spacingTop=4;" vertex="1" parent="1">
          <mxGeometry x="190" y="290" width="460" height="35" as="geometry" />
        </mxCell>
        <mxCell id="42obXh37JdK9595BwuWY-7" value="&lt;span style=&quot;white-space: pre;&quot;&gt;	&lt;/span&gt;&lt;br&gt;&lt;span style=&quot;white-space: pre;&quot;&gt;	&lt;/span&gt;List of boarding pass:&lt;br&gt;" style="rounded=0;whiteSpace=wrap;html=1;verticalAlign=top;align=left;spacingTop=4;" vertex="1" parent="1">
          <mxGeometry x="190" y="340" width="460" height="160" as="geometry" />
        </mxCell>
        <mxCell id="42obXh37JdK9595BwuWY-8" value="Boarding pass 1" style="html=1;shadow=0;dashed=0;shape=mxgraph.bootstrap.checkbox2;labelPosition=right;verticalLabelPosition=middle;align=left;verticalAlign=middle;gradientColor=#DEDEDE;fillColor=#EDEDED;checked=1;spacing=5;checkedFill=#0085FC;checkedStroke=#ffffff;sketch=0;" vertex="1" parent="1">
          <mxGeometry x="220" y="392" width="10" height="10" as="geometry" />
        </mxCell>
        <mxCell id="42obXh37JdK9595BwuWY-9" value="Boarding pass 2 ..." style="html=1;shadow=0;dashed=0;shape=mxgraph.bootstrap.checkbox2;labelPosition=right;verticalLabelPosition=middle;align=left;verticalAlign=middle;gradientColor=#DEDEDE;fillColor=#EDEDED;checked=0;spacing=5;fontColor=#6C767D;checkedFill=#0085FC;checkedStroke=#ffffff;sketch=0;" vertex="1" parent="1">
          <mxGeometry x="220" y="416" width="10" height="10" as="geometry" />
        </mxCell>
        <mxCell id="42obXh37JdK9595BwuWY-11" value="" style="group" vertex="1" connectable="0" parent="1">
          <mxGeometry x="160" y="238" width="520" height="40" as="geometry" />
        </mxCell>
        <mxCell id="42obXh37JdK9595BwuWY-12" value="1" style="shape=ellipse;fontSize=12;strokeColor=none;fillColor=#9E9E9E;fontColor=#ffffff;align=center;verticalAlign=middle;html=1;" vertex="1" parent="42obXh37JdK9595BwuWY-11">
          <mxGeometry x="34.12780656303973" width="21.554404145077726" height="19.200000000000003" as="geometry" />
        </mxCell>
        <mxCell id="42obXh37JdK9595BwuWY-13" value="Select Flight" style="shape=rect;fontColor=#4d4d4dlfontSize=13;strokeColor=none;fillColor=none;html=1;" vertex="1" parent="42obXh37JdK9595BwuWY-11">
          <mxGeometry y="24" width="89.81001727115715" height="16" as="geometry" />
        </mxCell>
        <mxCell id="42obXh37JdK9595BwuWY-14" value="" style="shape=line;strokeColor=#b3b3b3;" vertex="1" parent="42obXh37JdK9595BwuWY-11">
          <mxGeometry x="62.86701208981002" y="5.6000000000000005" width="71.84801381692576" height="8" as="geometry" />
        </mxCell>
        <mxCell id="42obXh37JdK9595BwuWY-15" value="2" style="shape=ellipse;fontSize=12;strokeColor=none;fillColor=#9E9E9E;fontColor=#ffffff;align=center;verticalAlign=middle;html=1;" vertex="1" parent="42obXh37JdK9595BwuWY-11">
          <mxGeometry x="142.79792746113986" width="21.554404145077726" height="19.200000000000003" as="geometry" />
        </mxCell>
        <mxCell id="42obXh37JdK9595BwuWY-16" value="Passenger on Flight" style="shape=rect;fontColor=#4d4d4dlfontSize=13;strokeColor=none;fillColor=none;html=1;" vertex="1" parent="42obXh37JdK9595BwuWY-11">
          <mxGeometry x="109.56822107081175" y="24" width="89.81001727115715" height="16" as="geometry" />
        </mxCell>
        <mxCell id="42obXh37JdK9595BwuWY-17" value="3" style="shape=ellipse;fontSize=12;strokeColor=none;fillColor=#9E9E9E;fontColor=#ffffff;html=1;" vertex="1" parent="42obXh37JdK9595BwuWY-11">
          <mxGeometry x="248.77374784110538" width="21.554404145077726" height="19.200000000000003" as="geometry" />
        </mxCell>
        <mxCell id="42obXh37JdK9595BwuWY-18" value="Seat assignment" style="shape=rect;fontColor=#4d4d4dlfontSize=13;strokeColor=none;fillColor=none;align=center;verticalAlign=middle;html=1;" vertex="1" parent="42obXh37JdK9595BwuWY-11">
          <mxGeometry x="214.64594127806564" y="24" width="89.81001727115715" height="16" as="geometry" />
        </mxCell>
        <mxCell id="42obXh37JdK9595BwuWY-19" value="4" style="shape=ellipse;fontSize=12;strokeColor=none;fillColor=#9e9e9e;fontColor=#ffffff;html=1;" vertex="1" parent="42obXh37JdK9595BwuWY-11">
          <mxGeometry x="356.54576856649396" width="21.554404145077726" height="19.200000000000003" as="geometry" />
        </mxCell>
        <mxCell id="42obXh37JdK9595BwuWY-20" value="Important Notices" style="shape=rect;fontColor=#4d4d4dlfontSize=13;strokeColor=none;fillColor=none;align=center;verticalAlign=middle;html=1;" vertex="1" parent="42obXh37JdK9595BwuWY-11">
          <mxGeometry x="322.41796200345425" y="24" width="89.81001727115715" height="16" as="geometry" />
        </mxCell>
        <mxCell id="42obXh37JdK9595BwuWY-21" value="5" style="shape=ellipse;fontSize=12;strokeColor=none;fillColor=#4285F4;fontColor=#ffffff;html=1;" vertex="1" parent="42obXh37JdK9595BwuWY-11">
          <mxGeometry x="464.3177892918826" width="21.554404145077726" height="19.200000000000003" as="geometry" />
        </mxCell>
        <mxCell id="42obXh37JdK9595BwuWY-22" value="Boarding Pass" style="shape=rect;fontColor=#4d4d4dlfontSize=13;strokeColor=none;fillColor=none;align=center;verticalAlign=middle;html=1;" vertex="1" parent="42obXh37JdK9595BwuWY-11">
          <mxGeometry x="430.18998272884284" y="24" width="89.81001727115715" height="16" as="geometry" />
        </mxCell>
        <mxCell id="42obXh37JdK9595BwuWY-23" value="" style="shape=line;strokeColor=#b3b3b3;" vertex="1" parent="42obXh37JdK9595BwuWY-11">
          <mxGeometry x="169.74093264248705" y="5.6000000000000005" width="71.84801381692576" height="8" as="geometry" />
        </mxCell>
        <mxCell id="42obXh37JdK9595BwuWY-24" value="" style="shape=line;strokeColor=#b3b3b3;" vertex="1" parent="42obXh37JdK9595BwuWY-11">
          <mxGeometry x="277.5129533678757" y="5.6000000000000005" width="71.84801381692576" height="8" as="geometry" />
        </mxCell>
        <mxCell id="42obXh37JdK9595BwuWY-25" value="" style="shape=line;strokeColor=#b3b3b3;" vertex="1" parent="42obXh37JdK9595BwuWY-11">
          <mxGeometry x="385.2849740932643" y="5.6000000000000005" width="71.84801381692576" height="8" as="geometry" />
        </mxCell>
      </root>
    </mxGraphModel>
  </diagram>
</mxfile>
